Coordinates
version=1
nRows=37
nColumns=19
inDegrees=yes

Units are S.I. units (second, meters, Newtons, ...)
If the header above contains a line with 'inDegrees', this indicates whether rotational values are in degrees (yes) or radians (no).

endheader
time	pelvis_tilt	pelvis_list	pelvis_rotation	pelvis_tx	pelvis_ty	pelvis_tz	hip_flexion_r	hip_adduction_r	hip_rotation_r	knee_angle_r	knee_angle_r_beta	ankle_angle_r	hip_flexion_l	hip_adduction_l	hip_rotation_l	knee_angle_l	knee_angle_l_beta	ankle_angle_l
     17.00666667	     -1.79691888	      3.04617136	      6.42191099	      2.09992990	      0.91003188	      0.98954091	    -19.00035512	     -4.17667432	    -15.29371885	     42.24403856	      0.73729756	    -13.54561018	     26.10380389	      7.37246927	     -3.81403071	     18.71932640	      0.32671388	     -4.86399304
     17.01333333	     -1.29319519	      3.60884295	      6.82445665	      2.09985815	      0.90676486	      0.98911581	    -18.88659717	     -4.72430490	    -15.01327037	     45.25147311	      0.78978720	    -12.50203140	     25.68455062	      8.09113703	     -3.93679882	     19.89795816	      0.34728488	     -4.75443178
     17.02000000	     -0.81242979	      4.11801740	      7.22068184	      2.09966617	      0.90305747	      0.98874734	    -18.64478692	     -5.18930125	    -14.64995459	     48.36648913	      0.84415448	    -11.52964605	     25.32486070	      8.74581458	     -3.97592236	     21.40747315	      0.37363089	     -4.32052608
     17.02666667	     -0.26248127	      4.65826084	      7.57772944	      2.09937662	      0.89902463	      0.98844111	    -18.40071165	     -5.69397804	    -14.28136667	     51.55317439	      0.89977263	    -10.70841514	     24.89593137	      9.40778612	     -3.98683523	     23.19583021	      0.40484361	     -3.54159622
     17.03333333	      0.52910402	      5.29695590	      7.94961367	      2.09901185	      0.89495792	      0.98815225	    -18.41183041	     -6.25614711	    -14.01820621	     54.70427917	      0.95476979	    -10.03155389	     24.12225465	     10.17917817	     -3.82269617	     25.08099061	      0.43774587	     -2.37355539
     17.04000000	      1.17066912	      5.85957585	      8.21504031	      2.09842830	      0.89040658	      0.98790022	    -18.10223799	     -6.81773914	    -13.61874911	     57.98186475	      1.01197445	     -9.44325049	     23.60108704	     10.81864968	     -3.88909335	     27.31495662	      0.47673593	     -0.95106686
     17.04666667	      1.42126495	      6.21139441	      8.38698334	      2.09761214	      0.88530952	      0.98773701	    -17.15008517	     -7.23329677	    -12.94556434	     61.38324588	      1.07133975	     -8.90258351	     23.55258636	     11.26350904	     -3.96441832	     29.74088577	      0.51907638	      0.80097775
     17.05333333	      1.83134802	      6.67112517	      8.61912101	      2.09663602	      0.88020128	      0.98752585	    -16.37512414	     -7.72292372	    -12.42064262	     64.70998925	      1.12940237	     -8.37650932	     23.26174709	     11.85706678	     -3.91172375	     32.19221521	      0.56186015	      2.80152423
     17.06000000	      2.22661416	      7.04484392	      8.77275890	      2.09541389	      0.87505877	      0.98743544	    -15.45198095	     -8.19458750	    -11.86439151	     68.02805175	      1.18731349	     -7.86523907	     22.95315687	     12.32812391	     -3.91612491	     34.64106096	      0.60460057	      5.10755071
     17.06666667	      2.56201939	      7.40365851	      8.92531402	      2.09401187	      0.86987722	      0.98738358	    -14.38293053	     -8.65739481	    -11.27760236	     71.29472980	      1.24432777	     -7.28990116	     22.68876240	     12.79702940	     -3.89586977	     37.10596520	      0.64762126	      7.48090047
     17.07333333	      2.88777687	      7.71530253	      9.03519313	      2.09239296	      0.86485297	      0.98741189	    -13.19868711	     -9.08854038	    -10.64154770	     74.48056885	      1.29993116	     -6.65271094	     22.39355689	     13.19805477	     -3.87040382	     39.50076256	      0.68941836	      9.89579410
     17.08000000	      3.10981103	      7.95456873	      9.12297146	      2.09053998	      0.85993285	      0.98754892	    -11.77663601	     -9.47199395	     -9.94900227	     77.59970580	      1.35437036	     -5.95590526	     22.17853268	     13.52577352	     -3.79753685	     41.81608459	      0.72982836	     12.26742270
     17.08666667	      3.31674724	      8.14110574	      9.17033174	      2.08848457	      0.85529304	      0.98778504	    -10.22555711	     -9.81468914	     -9.20969199	     80.60346756	      1.40679590	     -5.17810633	     21.92714379	     13.77879106	     -3.68115125	     43.99784340	      0.76790723	     14.52586657
     17.09333333	      3.43698253	      8.25299793	      9.17921937	      2.08624180	      0.85090694	      0.98810834	     -8.44924988	    -10.12404544	     -8.43476808	     83.49558411	      1.45727285	     -4.41027354	     21.72111083	     13.94627666	     -3.51241762	     46.04267597	      0.80359629	     16.63338469
     17.10000000	      3.56937027	      8.33084426	      9.17250513	      2.08383444	      0.84699287	      0.98847503	     -6.60271196	    -10.37020681	     -7.61200204	     86.19728145	      1.50442637	     -3.48626504	     21.40573468	     14.06052565	     -3.26277322	     47.86743271	      0.83544431	     18.50623547
     17.10666667	      4.10760810	      8.51194462	      9.19229676	      2.08137799	      0.84390796	      0.98883691	     -5.24180581	    -10.71820547	     -7.00331036	     88.59509333	      1.54627608	     -2.55703839	     20.49081938	     14.24294269	     -2.85057265	     49.42575791	      0.86264221	     20.24737326
     17.11333333	      3.71068306	      8.33804411	      8.96958556	      2.07867202	      0.84034072	      0.98940548	     -2.43280245	    -10.78723873	     -5.82395150	     91.07656166	      1.58958587	     -1.74351747	     20.65848047	     14.04136328	     -2.75751551	     50.92689135	      0.88884193	     21.63880569
     17.12000000	      3.70875620	      8.27820063	      8.81856847	      2.07600711	      0.83765035	      0.98988678	     -0.15055403	    -10.94474954	     -4.90660701	     93.18393457	      1.62636647	     -0.88502102	     20.19942606	     13.93838305	     -2.48548325	     52.11765252	      0.90962463	     22.88141844
     17.12666667	      4.29207723	      8.33171166	      8.84465863	      2.07335196	      0.83607183	      0.99007632	      1.32857719	    -11.18880656	     -4.37887971	     94.84672861	      1.65538770	     -0.15715714	     18.90301547	     13.95739146	     -1.90351467	     53.02471014	      0.92545578	     23.90568928
     17.13333333	      3.59154665	      8.08548792	      8.43281782	      2.07075645	      0.83357825	      0.99070746	      4.66592501	    -11.20901327	     -3.10292582	     96.61294251	      1.68621395	      0.69015954	     19.02513399	     13.57775172	     -2.05842158	     53.79828169	      0.93895715	     24.84995659
     17.14000000	      3.69624138	      8.06628961	      8.12139930	      2.06827776	      0.83250164	      0.99110515	      6.89385235	    -11.39804190	     -2.19050189	     97.86965929	      1.70814779	      1.40702034	     18.00701843	     13.40178750	     -1.98257675	     54.17927678	      0.94560677	     25.58753187
     17.14666667	      3.95446768	      7.95320297	      8.07870365	      2.06598239	      0.83209116	      0.99113176	      8.77644154	    -11.53870817	     -1.74120882	     98.69119679	      1.72248633	      2.10927472	     16.67249818	     13.22882891	     -1.51980919	     54.37565495	      0.94903421	     26.28078060
     17.15333333	      3.55147981	      7.84846353	      7.69049485	      2.06374333	      0.83143355	      0.99143591	     11.62374323	    -11.64171809	     -0.75620052	     99.45908607	      1.73588852	      2.70079414	     15.98343534	     12.94706196	     -1.73490203	     54.32441036	      0.94813983	     26.70077994
     17.16000000	      3.31886504	      7.65979737	      7.59702211	      2.06177651	      0.83152035	      0.99134897	     14.03244892	    -11.72808602	     -0.30293527	     99.75893597	      1.74112189	      3.26983140	     14.97013279	     12.69766620	     -1.49563429	     54.10806859	      0.94436395	     27.07744188
     17.16666667	      3.32663275	      7.39092010	      7.68335566	      2.06004161	      0.83250508	      0.99103069	     15.96179722	    -11.76036291	     -0.24350019	     99.61419545	      1.73859569	      3.81771800	     13.55533134	     12.37990648	     -1.02327885	     53.67411178	      0.93678997	     27.32305550
     17.17333333	      3.21306977	      7.12020301	      7.75060715	      2.05849569	      0.83382557	      0.99065882	     17.95018586	    -11.82380288	     -0.24799513	     99.20547844	      1.73146223	      4.34007566	     12.18373009	     12.04173854	     -0.64714692	     53.04935224	      0.92588586	     27.43029464
     17.18000000	      3.00434647	      6.81033320	      7.85738105	      2.05718419	      0.83557664	      0.99028770	     19.92109995	    -11.88209956	     -0.41611593	     98.51090762	      1.71933969	      4.82473624	     10.83894647	     11.64034064	     -0.30571176	     52.26780540	      0.91224530	     27.37740287
     17.18666667	      2.70222065	      6.47920188	      7.95868420	      2.05605138	      0.83780072	      0.98986577	     21.87624891	    -11.88887438	     -0.62861474	     97.51794644	      1.70200925	      5.30600848	      9.51911687	     11.26687243	      0.13866845	     51.29196800	      0.89521372	     27.16432258
     17.19333333	      2.38142515	      6.12704056	      8.13229858	      2.05515384	      0.84057237	      0.98946252	     23.68186466	    -11.87329118	     -1.01071252	     96.23617817	      1.67963817	      5.74699726	      8.14138555	     10.87730079	      0.70254983	     50.13604402	      0.87503904	     26.68985644
     17.20000000	      2.01172250	      5.68959245	      8.36129485	      2.05451017	      0.84379453	      0.98900275	     25.35312602	    -11.79851246	     -1.58385494	     94.63845970	      1.65175272	      6.15741095	      6.79825658	     10.36109027	      1.24621330	     48.89448486	      0.85336975	     25.99289912
     17.20666667	      2.52819076	      5.23263760	      8.82375633	      2.05434303	      0.84860274	      0.98830041	     25.61063787	    -11.83977993	     -2.84256228	     92.54648424	      1.61524086	      6.61871888	      4.35021877	      9.63880928	      2.02800110	     47.37432901	      0.82683802	     25.11815115
     17.21333333	      1.89008579	      4.68659195	      9.01173758	      2.05415543	      0.85234511	      0.98799549	     27.31661924	    -11.60134680	     -3.50951095	     90.48066487	      1.57918551	      6.94951095	      3.28549969	      8.94486572	      2.36731035	     45.93872754	      0.80178205	     23.93215408
     17.22000000	      2.47727248	      4.05628636	      9.38900642	      2.05447392	      0.85798605	      0.98746701	     27.19717909	    -11.31292502	     -4.88109688	     87.84978302	      1.53326796	      7.26943980	      0.77242839	      7.90061508	      2.91496823	     44.22185379	      0.77181695	     22.52414690
     17.22666667	      2.51088255	      3.50807673	      9.56639869	      2.05494244	      0.86317375	      0.98718146	     27.70978563	    -10.99687317	     -5.89639094	     85.16725575	      1.48644903	      7.53128049	     -1.12442281	      6.99820001	      3.12423104	     42.43958392	      0.74071047	     20.80329415
     17.23333333	      2.50431322	      2.88835628	      9.67372295	      2.05565205	      0.86849593	      0.98698297	     28.13465778	    -10.54395681	     -6.93337582	     82.25204588	      1.43556902	      7.66631554	     -2.93984413	      5.98451216	      3.12070747	     40.62745207	      0.70908281	     18.83135422
     17.24000000	      2.39266794	      2.22811775	      9.63810139	      2.05659271	      0.87378622	      0.98692890	     28.59153851	     -9.93781805	     -7.86371304	     79.14990758	      1.38142649	      7.65161985	     -4.60698915	      4.92666282	      2.81769706	     38.79437338	      0.67708955	     16.60828531
     17.24666667	      1.54300067	      1.70073330	      9.61676775	      2.05761673	      0.87828271	      0.98688924	     29.79993451	     -9.53413948	     -8.64717436	     76.02232165	      1.32683982	      7.57358068	     -5.40590213	      4.18679590	      2.58324130	     37.06770921	      0.64695357	     14.09343526
